<?xml version="1.0" encoding="utf-8"?>
<!DOCTYPE svg PUBLIC "-//W3C//DTD SVG 20010904//EN" "http://www.w3.org/TR/2001/REC-SVG-20010904/DTD/svg10.dtd">
<svg version="1.0" xmlns="http://www.w3.org/2000/svg" width="128px" height="128px" viewBox="0 0 128 128" preserveAspectRatio="xMidYMid meet">
 <g fill="#fefefe">
  <path d="M0 64 l0 -64 64 0 64 0 0 64 0 64 -64 0 -64 0 0 -64z"/>
 </g>
 <g fill="#ececed">
  <path d="M19 122.1 c0 -0.5 2 -7.5 4.5 -15.4 2.5 -8 4.5 -14.8 4.5 -15.1 0 -0.3 -2 -0.6 -4.5 -0.6 -2.9 0 -4.5 -0.4 -4.5 -1.2 0 -0.7 3.1 -11.4 6.9 -23.8 3.8 -12.4 8.1 -26.4 9.6 -31.2 l2.6 -8.8 13.6 0 c13.5 0 13.5 0 13 2.2 -0.6 2.9 -7.7 26.8 -11 37.1 l-2.5 7.7 4.9 0 c4.5 0 6.2 1.1 3.9 2.5 -0.5 0.3 -9.7 11.1 -20.5 24 -10.7 12.9 -19.7 23.5 -20 23.5 -0.3 0 -0.5 -0.4 -0.5 -0.9z"/>
  <path d="M56.6 61.4 c0.4 -1.5 1.4 -5.2 2.3 -8.3 l1.7 -5.6 9.5 -0.6 c5.2 -0.3 10.2 -0.9 11.2 -1.4 4.9 -2.1 6.3 -12.5 2.3 -17.2 l-2.4 -2.8 -21.6 -0.5 -21.6 -0.5 -8 -8 c-4.4 -4.4 -8 -8.3 -8 -8.7 0 -1.2 51.3 -0.9 59.3 0.2 16.9 2.5 25.4 12.2 25 28.7 -0.2 8.2 -3.4 15.3 -9.1 20.3 -6.3 5.6 -11.8 7 -27.9 7 l-13.3 0 0.6 -2.6z"/>
 </g>
 <g fill="#cc1924">
  <path d="M20 120.4 c0 -0.4 2 -7 4.5 -14.8 2.5 -7.9 4.5 -14.6 4.5 -14.9 0 -0.4 -2 -0.7 -4.5 -0.7 -2.5 0 -4.5 -0.5 -4.5 -1.1 0 -0.6 4.1 -14.7 9.2 -31.5 l9.2 -30.4 12.8 0 c7 0 12.8 0.4 12.8 0.9 0 0.4 -2.9 10.5 -6.5 22.4 -3.6 11.9 -6.5 21.9 -6.5 22.2 0 0.3 2 0.5 4.5 0.5 2.5 0 4.5 0.2 4.5 0.5 0 0.7 -39 47.5 -39.6 47.5 -0.2 0 -0.4 -0.3 -0.4 -0.6z"/>
 </g>
 <g fill="#bb161e">
  <path d="M20.3 119.9 c2.3 -6.6 8.7 -27.9 8.7 -28.8 0 -0.6 -1.8 -1.1 -4.5 -1.1 -2.5 0 -4.5 -0.3 -4.5 -0.6 0 -1 13.2 -43.9 13.7 -44.4 0.2 -0.2 0.2 1.6 -0.1 4 l-0.6 4.5 2 -5.5 1.9 -5.5 -0.5 5.3 c-0.4 3.4 -0.2 5.2 0.5 5.2 0.6 0 1.1 -1.2 1.1 -2.7 0.1 -2.4 0.2 -2.5 1.1 -1 0.5 0.9 1.4 1.7 1.9 1.7 1 0 3.8 -4.8 6.5 -11 2.8 -6.6 3.4 -7.2 5.2 -5.5 2 2.1 3.3 1.9 3.3 -0.5 0 -2.4 1.5 -2.7 2.4 -0.4 0.3 0.8 -0.1 2.2 -0.9 3 -0.8 0.9 -1.4 2.3 -1.4 3.2 0.1 1.4 0.2 1.4 0.6 -0.1 0.3 -1.2 1 -1.6 2 -1.3 1.1 0.4 1.3 0.2 1 -0.9 -0.4 -0.8 -0.2 -1.7 0.3 -2 0.6 -0.4 1 -1.5 1 -2.5 0 -1 0.4 -2.1 0.9 -2.5 1.1 -0.6 0.7 1 -6.1 24 -2.7 9.4 -5.1 17.5 -5.1 18 -0.1 0.6 1.8 1.2 4.2 1.5 l4.5 0.5 -18.3 22 c-10.1 12.1 -19.1 22.7 -19.9 23.5 -1.3 1.3 -1.4 1.3 -0.9 -0.1z"/>
  <path d="M53.8 27.3 c1.8 -0.2 4.5 -0.2 6 0 1.5 0.2 0 0.4 -3.3 0.4 -3.3 0 -4.5 -0.2 -2.7 -0.4z"/>
 </g>
 <g fill="#ae141c">
  <path d="M20.4 119.5 c0.3 -1.1 2.6 -8.2 5 -15.7 l4.4 -13.8 -4.9 0 c-2.7 0 -4.9 -0.3 -4.9 -0.6 0 -1.2 10.2 -33.9 10.8 -34.4 0.3 -0.3 0.2 0.6 -0.2 2 -1.7 6.5 -1.9 8.3 -0.8 7.6 0.7 -0.4 1.2 -1.6 1.2 -2.6 0 -1.3 0.5 -1.7 1.5 -1.4 0.8 0.4 1.5 1.5 1.5 2.6 0 1.8 0.2 1.9 1.7 0.7 0.9 -0.8 1.9 -1.2 2.2 -1 0.3 0.3 0.7 -0.2 0.9 -1 0.4 -2.3 9.1 -18.6 9.2 -17.1 0 1.4 7 1.7 7 0.2 0 -0.5 0.4 -1 1 -1 0.5 0 0.6 0.7 0.3 1.7 -0.5 1.1 -0.3 1.4 0.6 0.8 1 -0.5 1.2 -0.2 0.8 1.1 -0.4 1.1 -0.9 3.2 -1.3 4.7 -0.5 2.2 -0.9 2.5 -1.6 1.5 -0.6 -0.9 -0.7 -0.5 -0.3 1.2 0.3 1.4 -0.5 6 -1.9 10.3 -2.6 8.5 -2.6 8.4 3.3 8.9 l3.5 0.3 -18.3 22 c-10.1 12.1 -19 22.7 -19.9 23.5 -1.2 1.3 -1.3 1.3 -0.8 -0.5z m8.6 -52.5 c0 -1.3 -0.1 -1.3 -1 0 -0.5 0.8 -1 2.2 -1 3 0 1.3 0.1 1.3 1 0 0.5 -0.8 1 -2.2 1 -3z m27 -18.5 c0 -0.8 -0.4 -1.5 -1 -1.5 -0.5 0 -1 0.7 -1 1.5 0 0.8 0.5 1.5 1 1.5 0.6 0 1 -0.7 1 -1.5z"/>
  <path d="M58.1 43.5 c0 -1.1 0.4 -2.7 0.9 -3.5 0.9 -1.3 1 -1.3 0.9 0 0 0.8 -0.4 2.4 -0.9 3.5 l-0.9 2 0 -2z"/>
 </g>
 <g fill="#a2121c">
  <path d="M20.4 119.5 c0.3 -1.1 2.6 -8.2 5 -15.7 l4.4 -13.8 -4.9 0 c-2.7 0 -4.9 -0.3 -4.9 -0.7 0 -0.5 1.6 -5.5 3.5 -11.3 2.1 -6.6 3.2 -8.9 2.8 -6.2 -0.6 4.5 0.9 5.9 2.2 2 l0.8 -2.3 0.4 2.3 c0.2 1.2 1.1 2.2 1.9 2.2 0.8 0 1.2 -0.4 0.9 -1 -0.3 -0.6 0.1 -0.7 0.9 -0.4 1.1 0.4 1.6 0 1.6 -1.2 0 -1.1 0.9 -3.2 2 -4.9 1.1 -1.6 2 -4 2 -5.1 0 -1.2 0.7 -2.7 1.5 -3.4 0.8 -0.7 1.5 -1.8 1.5 -2.5 0 -0.7 0.7 -1.5 1.5 -1.9 0.8 -0.3 1.5 0 1.5 0.7 0 0.8 0.3 0.7 0.9 -0.2 0.8 -1.2 1.6 -1.3 4.5 -0.4 3.2 1 3.6 0.9 4.2 -0.9 0.3 -1.1 0.8 -1.8 1 -1.5 0.2 0.2 -0.9 4.8 -2.5 10.1 -3.1 10.4 -3.1 10.3 2.8 10.8 l3.4 0.3 -18.7 22.5 c-21.4 25.6 -21.1 25.2 -20.2 22.5z"/>
  <path d="M56 50.4 c0 -1 0.5 -2.6 1 -3.4 0.8 -1.1 0.9 -0.7 0.4 1.5 -0.8 3.7 -1.4 4.5 -1.4 1.9z"/>
 </g>
 <g fill="#920c15">
  <path d="M23.6 110.4 c1.9 -6 3.9 -12.8 4.5 -15.2 1.3 -4.9 3.2 -6.8 2.3 -2.2 -0.7 3.3 -0.3 3.6 2.7 1.9 1.4 -0.7 1.8 -1.6 1.4 -3 -0.5 -1.5 -0.1 -2.2 1.4 -2.6 1.9 -0.5 6.8 -6.9 6 -7.8 -0.2 -0.2 -2.2 -0.5 -4.4 -0.8 -2.2 -0.2 -3.9 -0.8 -3.8 -1.3 0.6 -2.2 3.3 -9.1 4.5 -11.4 1.6 -3.1 4.5 -3.2 7.8 -0.2 1.4 1.2 2.8 2.2 3.2 2.2 0.4 0 1.5 -2.5 2.4 -5.5 1 -3 1.9 -5.3 2.1 -5.1 0.4 0.3 -2.1 9.8 -3.4 13.3 -0.3 0.8 1.1 1.3 4.2 1.5 l4.6 0.3 -19.2 23 c-10.5 12.7 -19.3 23.2 -19.5 23.4 -0.1 0.2 1.3 -4.6 3.2 -10.5z"/>
  <path d="M26 89 c0 -0.5 -0.7 -1 -1.5 -1 -0.8 0 -1.5 -0.4 -1.5 -1 0 -1.3 1.7 -1.3 2.5 0 0.3 0.6 1.8 0.8 3.3 0.4 2.6 -0.5 2.6 -0.5 0.8 1 -2.3 1.8 -3.6 2 -3.6 0.6z"/>
 </g>
 <g fill="#3c3c3c">
  <path d="M57 62.9 c0 -0.6 0.9 -4.2 2.1 -8 l2.1 -6.9 7.4 0 c11.6 0 17.1 -3.2 18.1 -10.8 0.7 -5.2 -1.8 -9.9 -6.2 -11.8 -2.6 -1 -8.3 -1.4 -22.7 -1.4 l-19.3 0 -8 -8.1 -8 -8 31 0.4 c33.6 0.4 35.7 0.7 42.7 6 6.4 4.8 9.3 11.3 9.3 20.7 0 9.2 -1.6 14 -6.3 19.2 -4.4 4.9 -9 7.3 -16.7 8.7 -7.8 1.5 -25.5 1.5 -25.5 0z"/>
 </g>
 <g fill="#353537">
  <path d="M58.6 58.3 c0.8 -2.7 1.7 -6 2.1 -7.5 0.5 -2.8 0.6 -2.8 9 -2.8 12.7 0 17.3 -3.2 17.3 -12.2 0 -3.9 -0.6 -5.4 -2.9 -8 -2.8 -3.2 -3.3 -3.3 -12.8 -3.9 -5.4 -0.4 -15 -0.7 -21.3 -0.8 l-11.6 -0.1 -7.4 -7.5 -7.4 -7.5 17.9 0 c22.7 0.1 44.7 1.4 47.1 2.9 1.6 0.9 1.4 1 -1.1 0.5 -2.6 -0.5 -3.1 -0.2 -3.1 1.4 0 2.2 4.2 3.7 7.1 2.6 0.8 -0.4 2.6 0.1 4 1 1.4 0.9 2.5 1.4 2.5 1.2 0 -0.3 -1.7 -1.7 -3.7 -3.1 -2.1 -1.4 -3.3 -2.5 -2.7 -2.5 0.6 0 2.9 1.7 5.1 3.8 2.1 2 3.5 3.4 3 3.1 -0.5 -0.4 -2.4 -0.3 -4.2 0.1 -1.9 0.4 -3.8 0.3 -4.3 -0.2 -0.6 -0.6 -1.2 -0.6 -1.5 0 -0.4 0.5 0.7 1.9 2.3 3.1 1.7 1.2 3 1.7 3 1.1 0 -0.5 0.5 -1 1.1 -1 0.5 0 0.8 0.4 0.5 0.9 -0.4 0.5 0.3 0.7 1.4 0.4 1.8 -0.5 1.9 0 1.8 6.3 -0.1 4.4 -0.4 6.2 -0.9 4.9 -0.7 -1.7 -0.8 -1.8 -0.8 -0.2 -0.1 1 0.6 2 1.4 2.4 0.9 0.3 1.5 1.3 1.4 2.2 -0.3 3.2 0.1 4 1.7 3.4 1.4 -0.5 1.6 -1.9 1.2 -9.1 -0.3 -5.8 -0.2 -7.7 0.5 -6.1 1.6 4.2 0.3 17 -2.3 22.3 -4.7 9.8 -13.8 13.6 -32.6 13.6 l-12.3 0 1.5 -4.7z m24.4 -47.1 c0 -0.4 -1.2 -0.8 -2.7 -0.9 -2.4 -0.1 -2.5 -0.1 -0.8 0.7 2.6 1.1 3.5 1.2 3.5 0.2z"/>
 </g>
 <g fill="#2e2e2f">
  <path d="M58.6 57.8 c3.2 -10.5 2.4 -9.8 11.4 -9.8 12.4 0 17 -3.3 17 -12.2 0 -3.9 -0.6 -5.4 -2.9 -8 -2.8 -3.1 -3.4 -3.3 -11.8 -4 -4.8 -0.3 -14.5 -0.7 -21.4 -0.7 -9.3 -0.1 -13 -0.5 -13.8 -1.4 -0.6 -0.8 -0.7 -1.8 -0.3 -2.2 0.4 -0.5 0.2 -0.5 -0.4 -0.2 -1.4 0.8 -3.7 -1.7 -2.6 -2.8 0.4 -0.5 0.2 -0.5 -0.4 -0.2 -0.6 0.3 -3 -1.4 -5.4 -3.8 l-4.4 -4.5 12.5 0 c6.9 0 20.2 0.3 29.5 0.8 13.8 0.6 15.6 0.8 9.6 1.2 l-7.4 0.5 2 2.3 c1.1 1.2 2.5 2.2 3.2 2.2 0.7 0 4.4 0.9 8.2 2.1 9.1 2.7 14.3 7.2 15.7 13.7 0.9 4.5 0.3 10.4 -1.3 13.1 -0.4 0.7 -0.2 1 0.5 0.9 0.7 -0.2 1.8 0.7 2.4 2 1.8 3.3 2.7 3.2 4.1 -0.8 0.7 -1.9 1.3 -2.9 1.3 -2.2 0.2 2.4 -2.8 8.3 -3.9 7.7 -0.5 -0.3 -0.7 0 -0.4 0.9 0.8 2 -6.6 7.2 -12.9 9.1 -3.3 1 -9.4 1.5 -17.3 1.5 l-12.3 0 1.5 -5.2z"/>
  <path d="M104.3 37.5 c0 -2.7 0.2 -3.8 0.4 -2.2 0.2 1.5 0.2 3.7 0 5 -0.2 1.2 -0.4 0 -0.4 -2.8z"/>
 </g>
 <g fill="#262628">
  <path d="M59.4 55.8 l2.2 -7.3 9.8 -0.5 c9.5 -0.5 9.9 -0.6 12.7 -3.8 2.3 -2.6 2.9 -4.2 2.9 -7.8 0 -5.7 -2.1 -9.8 -5.7 -11.2 -3.8 -1.4 -11.7 -2.1 -24.3 -2.2 l-10.5 0 -1.9 -3.5 c-1.8 -3.3 -2.2 -3.5 -7 -3.5 l-5 0 3.4 3.8 c1.9 2 0 0.3 -4.3 -3.8 l-7.8 -7.5 12.3 -0.3 c6.8 -0.1 16.6 0.2 21.8 0.7 7.8 0.7 8.5 0.8 3.8 1 l-5.7 0.1 2.5 2.5 c2.2 2.2 3.7 2.7 10.2 3.1 14.2 0.9 23.3 4.8 26.7 11.4 2.5 4.8 1.9 13.1 -1.1 17.6 -1.5 2.1 -3 4 -3.4 4.2 -0.5 0.2 -0.4 1.7 0.2 3.5 0.5 1.8 1 3.8 1.1 4.5 0.1 1.6 1.2 1.5 2.7 -0.3 0.7 -0.8 1.7 -1.5 2.3 -1.5 0.6 0 -0.5 1.1 -2.3 2.5 -5.6 4.1 -12.1 5.5 -25.6 5.5 l-12.2 0 2.2 -7.2z m3.9 -3.4 c-0.3 -0.9 0 -2 0.8 -2.5 1.1 -0.7 1.1 -0.9 -0.3 -0.9 -1 0 -1.8 0.4 -1.8 0.9 0 0.5 -0.3 1.6 -0.6 2.5 -0.4 1 -0.1 1.6 1 1.6 1 0 1.3 -0.6 0.9 -1.6z"/>
 </g>
 <g fill="#1f1f21">
  <path d="M58.6 58.4 c1.4 -4.6 2.4 -6.7 2.4 -4.8 0 0.5 3.2 0.7 7.1 0.6 5.9 -0.3 7.2 -0.7 7.6 -2.2 0.3 -1.1 1.5 -2.1 2.7 -2.3 1.1 -0.3 -2.2 -0.4 -7.6 -0.4 -5.3 0.1 -9.4 -0.1 -9.1 -0.5 0.2 -0.5 4.5 -0.8 9.5 -0.8 8.9 0 9 0 12.4 -3.4 2.9 -2.9 3.4 -4.1 3.4 -8 0 -5.8 -2 -9.8 -5.7 -11.6 -1.8 -0.9 -8.6 -1.6 -19.3 -2 -14.4 -0.6 -15.3 -0.7 -7 -1 5.2 -0.2 8.2 -0.5 6.7 -0.7 -1.9 -0.3 -2.7 -1 -2.5 -2.1 0.2 -1.2 -0.3 -1.6 -1.6 -1.4 -1.1 0.2 -1.5 -0.1 -1.1 -0.7 1 -1.6 17.2 -1.3 24 0.4 7.9 2.1 12.2 4.9 14.5 9.6 2.1 4.1 2.6 10.2 1.1 14.2 -1.4 3.5 -6.4 8.2 -11.6 10.7 -3.9 1.9 -4.3 2.4 -3.5 4.1 0.6 1 1.7 1.9 2.5 1.9 1.8 0 2 1.6 0.3 2.3 -0.7 0.3 -0.4 0.6 0.7 0.6 1.1 0 3.9 -0.8 6.3 -1.9 2.3 -1 4.2 -1.7 4.2 -1.4 0 0.3 -2.1 1.5 -4.7 2.7 -4 1.7 -7.2 2.2 -19 2.5 l-14.2 0.4 1.5 -4.8z"/>
  <path d="M28 12.5 l-4.4 -4.5 7.4 0.1 c8.6 0.2 22.2 1.5 17.3 1.7 -3.5 0.2 -4.1 1 -2.1 3 2.1 2.1 -0.9 3.1 -7.8 2.9 -3.4 -0.1 -6 0.1 -5.8 0.5 1.1 1.8 -0.5 0.5 -4.6 -3.7z"/>
 </g>
 <g fill="#191919">
  <path d="M58.5 58.8 c0.7 -2.4 1.5 -4.2 1.9 -4 0.3 0.1 2.6 0.2 5.1 0.2 4 0 4.5 0.2 4.5 2.3 0 3.6 3.7 5.1 11.2 4.4 4 -0.3 5.2 -0.2 3.3 0.3 -1.6 0.4 -8.5 0.8 -15.1 0.9 l-12.2 0.1 1.3 -4.2z"/>
  <path d="M88 47.6 c0 -2.1 -2.5 -2.7 -4.7 -1.1 -3.3 2.6 -3.2 1.6 0.3 -1.9 2.9 -2.9 3.4 -4.1 3.4 -8 0 -9.1 -3.6 -12.3 -15.3 -13.6 -3.4 -0.4 -5.2 -0.8 -3.9 -0.9 1.8 -0.1 2.2 -0.7 2.2 -3.2 0 -2.4 0.4 -2.9 1.8 -2.6 0.9 0.3 3.9 0.8 6.7 1.2 15.5 2.1 23.2 15.6 15.3 26.7 -2.5 3.5 -5.8 5.5 -5.8 3.4z"/>
  <path d="M50.3 22.3 c2.6 -0.2 6.7 -0.2 9 0 2.3 0.2 0.2 0.3 -4.8 0.3 -4.9 0 -6.8 -0.1 -4.2 -0.3z"/>
  <path d="M27.3 11.8 l-3.7 -3.8 5.4 0 c6.9 0 10.7 0.9 8.8 2.1 -1 0.7 -1 0.9 0 0.9 0.6 0 1.2 0.9 1.2 1.9 0 1.5 -0.9 2 -4 2.3 -3.6 0.3 -4.4 -0.1 -7.7 -3.4z"/>
 </g>
 <g fill="#141416">
  <path d="M58.4 59.3 c1.2 -3.6 3.6 -5.7 3.6 -3.2 0 0.7 0.7 2.1 1.7 3.1 1.5 1.7 1.5 1.8 -0.3 2 -1 0.1 2.6 0.5 8.1 0.8 l10 0.6 -12.2 0.2 -12.2 0.2 1.3 -3.7z"/>
  <path d="M91.8 46 c1.3 -1.7 1.2 -4.6 -0.1 -6.7 -0.5 -0.8 -0.4 -1.3 0.2 -1.3 2 0 1.1 -2.8 -1.8 -5.8 l-2.8 -3.1 0.4 2.7 c0.3 2.2 0.1 2 -0.9 -0.8 -1 -2.6 -2.5 -4.1 -5.8 -5.7 -2.4 -1.3 -3.9 -2.3 -3.2 -2.3 0.7 0 2.6 0.6 4.1 1.4 2.4 1.3 2.8 1.3 2.8 0 0 -0.9 -1.3 -1.8 -2.8 -2.1 -1.8 -0.3 -2.6 -1 -2.2 -1.9 0.4 -1 0 -1.3 -1.3 -0.8 -1.8 0.5 -1.8 0.5 0 -0.6 2.6 -1.7 8.6 0.2 13.1 4.1 6.2 5.5 7 15.7 1.7 21.6 -1.5 1.6 -2.1 2.2 -1.4 1.3z"/>
  <path d="M27.5 11.8 l-4 -4.3 4.3 4 c2.3 2.1 4.2 4 4.2 4.2 0 0.8 -0.9 0 -4.5 -3.9z"/>
 </g>
</svg>