<svg version="1.0" xmlns="http://www.w3.org/2000/svg" width="128" height="128"><path d="M0 64V0h128v128H0V64z" fill="#fefefe"/><g fill="#ececed"><path d="M19 122.1c0-.5 2-7.5 4.5-15.4 2.5-8 4.5-14.8 4.5-15.1 0-.3-2-.6-4.5-.6-2.9 0-4.5-.4-4.5-1.2 0-.7 3.1-11.4 6.9-23.8 3.8-12.4 8.1-26.4 9.6-31.2l2.6-8.8h13.6c13.5 0 13.5 0 13 2.2-.6 2.9-7.7 26.8-11 37.1L51.2 73h4.9c4.5 0 6.2 1.1 3.9 2.5-.5.3-9.7 11.1-20.5 24-10.7 12.9-19.7 23.5-20 23.5-.3 0-.5-.4-.5-.9z"/><path d="M56.6 61.4c.4-1.5 1.4-5.2 2.3-8.3l1.7-5.6 9.5-.6c5.2-.3 10.2-.9 11.2-1.4 4.9-2.1 6.3-12.5 2.3-17.2l-2.4-2.8-21.6-.5-21.6-.5-8-8c-4.4-4.4-8-8.3-8-8.7 0-1.2 51.3-.9 59.3.2 16.9 2.5 25.4 12.2 25 28.7-.2 8.2-3.4 15.3-9.1 20.3-6.3 5.6-11.8 7-27.9 7H56l.6-2.6z"/></g><path d="M20 120.4c0-.4 2-7 4.5-14.8C27 97.7 29 91 29 90.7c0-.4-2-.7-4.5-.7s-4.5-.5-4.5-1.1c0-.6 4.1-14.7 9.2-31.5L38.4 27h12.8c7 0 12.8.4 12.8.9 0 .4-2.9 10.5-6.5 22.4C53.9 62.2 51 72.2 51 72.5c0 .3 2 .5 4.5.5s4.5.2 4.5.5c0 .7-39 47.5-39.6 47.5-.2 0-.4-.3-.4-.6z" fill="#cc1924"/><g fill="#bb161e"><path d="M20.3 119.9C22.6 113.3 29 92 29 91.1c0-.6-1.8-1.1-4.5-1.1-2.5 0-4.5-.3-4.5-.6 0-1 13.2-43.9 13.7-44.4.2-.2.2 1.6-.1 4l-.6 4.5 2-5.5 1.9-5.5-.5 5.3c-.4 3.4-.2 5.2.5 5.2.6 0 1.1-1.2 1.1-2.7.1-2.4.2-2.5 1.1-1 .5.9 1.4 1.7 1.9 1.7 1 0 3.8-4.8 6.5-11 2.8-6.6 3.4-7.2 5.2-5.5 2 2.1 3.3 1.9 3.3-.5s1.5-2.7 2.4-.4c.3.8-.1 2.2-.9 3-.8.9-1.4 2.3-1.4 3.2.1 1.4.2 1.4.6-.1.3-1.2 1-1.6 2-1.3 1.1.4 1.3.2 1-.9-.4-.8-.2-1.7.3-2 .6-.4 1-1.5 1-2.5s.4-2.1.9-2.5c1.1-.6.7 1-6.1 24-2.7 9.4-5.1 17.5-5.1 18-.1.6 1.8 1.2 4.2 1.5l4.5.5-18.3 22C31 108.6 22 119.2 21.2 120c-1.3 1.3-1.4 1.3-.9-.1zM53.8 27.3c1.8-.2 4.5-.2 6 0s0 .4-3.3.4-4.5-.2-2.7-.4z"/></g><g fill="#ae141c"><path d="M20.4 119.5c.3-1.1 2.6-8.2 5-15.7L29.8 90h-4.9c-2.7 0-4.9-.3-4.9-.6 0-1.2 10.2-33.9 10.8-34.4.3-.3.2.6-.2 2-1.7 6.5-1.9 8.3-.8 7.6.7-.4 1.2-1.6 1.2-2.6 0-1.3.5-1.7 1.5-1.4.8.4 1.5 1.5 1.5 2.6 0 1.8.2 1.9 1.7.7.9-.8 1.9-1.2 2.2-1 .3.3.7-.2.9-1 .4-2.3 9.1-18.6 9.2-17.1 0 1.4 7 1.7 7 .2 0-.5.4-1 1-1 .5 0 .6.7.3 1.7-.5 1.1-.3 1.4.6.8 1-.5 1.2-.2.8 1.1-.4 1.1-.9 3.2-1.3 4.7-.5 2.2-.9 2.5-1.6 1.5-.6-.9-.7-.5-.3 1.2.3 1.4-.5 6-1.9 10.3-2.6 8.5-2.6 8.4 3.3 8.9l3.5.3-18.3 22c-10.1 12.1-19 22.7-19.9 23.5-1.2 1.3-1.3 1.3-.8-.5zM29 67c0-1.3-.1-1.3-1 0-.5.8-1 2.2-1 3 0 1.3.1 1.3 1 0 .5-.8 1-2.2 1-3zm27-18.5c0-.8-.4-1.5-1-1.5-.5 0-1 .7-1 1.5s.5 1.5 1 1.5c.6 0 1-.7 1-1.5zM58.1 43.5c0-1.1.4-2.7.9-3.5.9-1.3 1-1.3.9 0 0 .8-.4 2.4-.9 3.5l-.9 2v-2z"/></g><g fill="#a2121c"><path d="M20.4 119.5c.3-1.1 2.6-8.2 5-15.7L29.8 90h-4.9c-2.7 0-4.9-.3-4.9-.7 0-.5 1.6-5.5 3.5-11.3 2.1-6.6 3.2-8.9 2.8-6.2-.6 4.5.9 5.9 2.2 2l.8-2.3.4 2.3c.2 1.2 1.1 2.2 1.9 2.2.8 0 1.2-.4.9-1-.3-.6.1-.7.9-.4 1.1.4 1.6 0 1.6-1.2 0-1.1.9-3.2 2-4.9 1.1-1.6 2-4 2-5.1 0-1.2.7-2.7 1.5-3.4.8-.7 1.5-1.8 1.5-2.5s.7-1.5 1.5-1.9c.8-.3 1.5 0 1.5.7 0 .8.3.7.9-.2.8-1.2 1.6-1.3 4.5-.4 3.2 1 3.6.9 4.2-.9.3-1.1.8-1.8 1-1.5.2.2-.9 4.8-2.5 10.1C50 73.8 50 73.7 55.9 74.2l3.4.3L40.6 97c-21.4 25.6-21.1 25.2-20.2 22.5zM56 50.4c0-1 .5-2.6 1-3.4.8-1.1.9-.7.4 1.5-.8 3.7-1.4 4.5-1.4 1.9z"/></g><g fill="#920c15"><path d="M23.6 110.4c1.9-6 3.9-12.8 4.5-15.2 1.3-4.9 3.2-6.8 2.3-2.2-.7 3.3-.3 3.6 2.7 1.9 1.4-.7 1.8-1.6 1.4-3-.5-1.5-.1-2.2 1.4-2.6 1.9-.5 6.8-6.9 6-7.8-.2-.2-2.2-.5-4.4-.8-2.2-.2-3.9-.8-3.8-1.3.6-2.2 3.3-9.1 4.5-11.4 1.6-3.1 4.5-3.2 7.8-.2 1.4 1.2 2.8 2.2 3.2 2.2.4 0 1.5-2.5 2.4-5.5 1-3 1.9-5.3 2.1-5.1.4.3-2.1 9.8-3.4 13.3-.3.8 1.1 1.3 4.2 1.5l4.6.3-19.2 23c-10.5 12.7-19.3 23.2-19.5 23.4-.1.2 1.3-4.6 3.2-10.5z"/><path d="M26 89c0-.5-.7-1-1.5-1s-1.5-.4-1.5-1c0-1.3 1.7-1.3 2.5 0 .3.6 1.8.8 3.3.4 2.6-.5 2.6-.5.8 1-2.3 1.8-3.6 2-3.6.6z"/></g><path d="M57 62.9c0-.6.9-4.2 2.1-8l2.1-6.9h7.4c11.6 0 17.1-3.2 18.1-10.8.7-5.2-1.8-9.9-6.2-11.8-2.6-1-8.3-1.4-22.7-1.4H38.5l-8-8.1-8-8 31 .4c33.6.4 35.7.7 42.7 6 6.4 4.8 9.3 11.3 9.3 20.7 0 9.2-1.6 14-6.3 19.2-4.4 4.9-9 7.3-16.7 8.7-7.8 1.5-25.5 1.5-25.5 0z" fill="#3c3c3c"/><path d="M58.6 58.3c.8-2.7 1.7-6 2.1-7.5.5-2.8.6-2.8 9-2.8C82.4 48 87 44.8 87 35.8c0-3.9-.6-5.4-2.9-8-2.8-3.2-3.3-3.3-12.8-3.9-5.4-.4-15-.7-21.3-.8L38.4 23 31 15.5 23.6 8h17.9c22.7.1 44.7 1.4 47.1 2.9 1.6.9 1.4 1-1.1.5-2.6-.5-3.1-.2-3.1 1.4 0 2.2 4.2 3.7 7.1 2.6.8-.4 2.6.1 4 1s2.5 1.4 2.5 1.2c0-.3-1.7-1.7-3.7-3.1-2.1-1.4-3.3-2.5-2.7-2.5.6 0 2.9 1.7 5.1 3.8 2.1 2 3.5 3.4 3 3.1-.5-.4-2.4-.3-4.2.1-1.9.4-3.8.3-4.3-.2-.6-.6-1.2-.6-1.5 0-.4.5.7 1.9 2.3 3.1 1.7 1.2 3 1.7 3 1.1 0-.5.5-1 1.1-1 .5 0 .8.4.5.9-.4.5.3.7 1.4.4 1.8-.5 1.9 0 1.8 6.3-.1 4.4-.4 6.2-.9 4.9-.7-1.7-.8-1.8-.8-.2-.1 1 .6 2 1.4 2.4.9.3 1.5 1.3 1.4 2.2-.3 3.2.1 4 1.7 3.4 1.4-.5 1.6-1.9 1.2-9.1-.3-5.8-.2-7.7.5-6.1 1.6 4.2.3 17-2.3 22.3C97.3 59.2 88.2 63 69.4 63H57.1l1.5-4.7zM83 11.2c0-.4-1.2-.8-2.7-.9-2.4-.1-2.5-.1-.8.7 2.6 1.1 3.5 1.2 3.5.2z" fill="#353537"/><g fill="#2e2e2f"><path d="M58.6 57.8C61.8 47.3 61 48 70 48c12.4 0 17-3.3 17-12.2 0-3.9-.6-5.4-2.9-8-2.8-3.1-3.4-3.3-11.8-4-4.8-.3-14.5-.7-21.4-.7-9.3-.1-13-.5-13.8-1.4-.6-.8-.7-1.8-.3-2.2.4-.5.2-.5-.4-.2-1.4.8-3.7-1.7-2.6-2.8.4-.5.2-.5-.4-.2-.6.3-3-1.4-5.4-3.8L23.6 8h12.5c6.9 0 20.2.3 29.5.8 13.8.6 15.6.8 9.6 1.2l-7.4.5 2 2.3C70.9 14 72.3 15 73 15c.7 0 4.4.9 8.2 2.1 9.1 2.7 14.3 7.2 15.7 13.7.9 4.5.3 10.4-1.3 13.1-.4.7-.2 1 .5.9.7-.2 1.8.7 2.4 2 1.8 3.3 2.7 3.2 4.1-.8.7-1.9 1.3-2.9 1.3-2.2.2 2.4-2.8 8.3-3.9 7.7-.5-.3-.7 0-.4.9.8 2-6.6 7.2-12.9 9.1-3.3 1-9.4 1.5-17.3 1.5H57.1l1.5-5.2zM104.3 37.5c0-2.7.2-3.8.4-2.2.2 1.5.2 3.7 0 5-.2 1.2-.4 0-.4-2.8z"/></g><path d="M59.4 55.8l2.2-7.3 9.8-.5c9.5-.5 9.9-.6 12.7-3.8 2.3-2.6 2.9-4.2 2.9-7.8 0-5.7-2.1-9.8-5.7-11.2-3.8-1.4-11.7-2.1-24.3-2.2H46.5l-1.9-3.5c-1.8-3.3-2.2-3.5-7-3.5h-5l3.4 3.8c1.9 2 0 .3-4.3-3.8l-7.8-7.5 12.3-.3c6.8-.1 16.6.2 21.8.7 7.8.7 8.5.8 3.8 1l-5.7.1 2.5 2.5c2.2 2.2 3.7 2.7 10.2 3.1 14.2.9 23.3 4.8 26.7 11.4 2.5 4.8 1.9 13.1-1.1 17.6-1.5 2.1-3 4-3.4 4.2-.5.2-.4 1.7.2 3.5.5 1.8 1 3.8 1.1 4.5.1 1.6 1.2 1.5 2.7-.3.7-.8 1.7-1.5 2.3-1.5.6 0-.5 1.1-2.3 2.5-5.6 4.1-12.1 5.5-25.6 5.5H57.2l2.2-7.2zm3.9-3.4c-.3-.9 0-2 .8-2.5 1.1-.7 1.1-.9-.3-.9-1 0-1.8.4-1.8.9s-.3 1.6-.6 2.5c-.4 1-.1 1.6 1 1.6 1 0 1.3-.6.9-1.6z" fill="#262628"/><g fill="#1f1f21"><path d="M58.6 58.4c1.4-4.6 2.4-6.7 2.4-4.8 0 .5 3.2.7 7.1.6 5.9-.3 7.2-.7 7.6-2.2.3-1.1 1.5-2.1 2.7-2.3 1.1-.3-2.2-.4-7.6-.4-5.3.1-9.4-.1-9.1-.5.2-.5 4.5-.8 9.5-.8 8.9 0 9 0 12.4-3.4 2.9-2.9 3.4-4.1 3.4-8 0-5.8-2-9.8-5.7-11.6-1.8-.9-8.6-1.6-19.3-2-14.4-.6-15.3-.7-7-1 5.2-.2 8.2-.5 6.7-.7-1.9-.3-2.7-1-2.5-2.1.2-1.2-.3-1.6-1.6-1.4-1.1.2-1.5-.1-1.1-.7 1-1.6 17.2-1.3 24 .4 7.9 2.1 12.2 4.9 14.5 9.6 2.1 4.1 2.6 10.2 1.1 14.2-1.4 3.5-6.4 8.2-11.6 10.7-3.9 1.9-4.3 2.4-3.5 4.1.6 1 1.7 1.9 2.5 1.9 1.8 0 2 1.6.3 2.3-.7.3-.4.6.7.6s3.9-.8 6.3-1.9c2.3-1 4.2-1.7 4.2-1.4 0 .3-2.1 1.5-4.7 2.7-4 1.7-7.2 2.2-19 2.5l-14.2.4 1.5-4.8zM28 12.5L23.6 8l7.4.1c8.6.2 22.2 1.5 17.3 1.7-3.5.2-4.1 1-2.1 3 2.1 2.1-.9 3.1-7.8 2.9-3.4-.1-6 .1-5.8.5 1.1 1.8-.5.5-4.6-3.7z"/></g><g fill="#191919"><path d="M58.5 58.8c.7-2.4 1.5-4.2 1.9-4 .3.1 2.6.2 5.1.2 4 0 4.5.2 4.5 2.3 0 3.6 3.7 5.1 11.2 4.4 4-.3 5.2-.2 3.3.3-1.6.4-8.5.8-15.1.9l-12.2.1 1.3-4.2zM88 47.6c0-2.1-2.5-2.7-4.7-1.1-3.3 2.6-3.2 1.6.3-1.9 2.9-2.9 3.4-4.1 3.4-8 0-9.1-3.6-12.3-15.3-13.6-3.4-.4-5.2-.8-3.9-.9 1.8-.1 2.2-.7 2.2-3.2 0-2.4.4-2.9 1.8-2.6.9.3 3.9.8 6.7 1.2 15.5 2.1 23.2 15.6 15.3 26.7-2.5 3.5-5.8 5.5-5.8 3.4zM50.3 22.3c2.6-.2 6.7-.2 9 0s.2.3-4.8.3c-4.9 0-6.8-.1-4.2-.3zM27.3 11.8L23.6 8H29c6.9 0 10.7.9 8.8 2.1-1 .7-1 .9 0 .9.6 0 1.2.9 1.2 1.9 0 1.5-.9 2-4 2.3-3.6.3-4.4-.1-7.7-3.4z"/></g><g fill="#141416"><path d="M58.4 59.3c1.2-3.6 3.6-5.7 3.6-3.2 0 .7.7 2.1 1.7 3.1 1.5 1.7 1.5 1.8-.3 2-1 .1 2.6.5 8.1.8l10 .6-12.2.2-12.2.2 1.3-3.7zM91.8 46c1.3-1.7 1.2-4.6-.1-6.7-.5-.8-.4-1.3.2-1.3 2 0 1.1-2.8-1.8-5.8l-2.8-3.1.4 2.7c.3 2.2.1 2-.9-.8-1-2.6-2.5-4.1-5.8-5.7-2.4-1.3-3.9-2.3-3.2-2.3.7 0 2.6.6 4.1 1.4 2.4 1.3 2.8 1.3 2.8 0 0-.9-1.3-1.8-2.8-2.1-1.8-.3-2.6-1-2.2-1.9.4-1 0-1.3-1.3-.8-1.8.5-1.8.5 0-.6 2.6-1.7 8.6.2 13.1 4.1 6.2 5.5 7 15.7 1.7 21.6-1.5 1.6-2.1 2.2-1.4 1.3zM27.5 11.8l-4-4.3 4.3 4c2.3 2.1 4.2 4 4.2 4.2 0 .8-.9 0-4.5-3.9z"/></g></svg>